G75*
G70*
%OFA0B0*%
%FSLAX24Y24*%
%IPPOS*%
%LPD*%
%AMOC8*
5,1,8,0,0,1.08239X$1,22.5*
%
%ADD10C,0.0000*%
%ADD11OC8,0.0520*%
%ADD12C,0.1000*%
%ADD13C,0.0700*%
%ADD14C,0.0440*%
D10*
X000100Y000147D02*
X000100Y012017D01*
X011092Y012017D01*
X011092Y000147D01*
X000100Y000147D01*
X003509Y004147D02*
X003511Y004195D01*
X003517Y004243D01*
X003527Y004290D01*
X003540Y004336D01*
X003558Y004381D01*
X003578Y004425D01*
X003603Y004467D01*
X003631Y004506D01*
X003661Y004543D01*
X003695Y004577D01*
X003732Y004609D01*
X003770Y004638D01*
X003811Y004663D01*
X003854Y004685D01*
X003899Y004703D01*
X003945Y004717D01*
X003992Y004728D01*
X004040Y004735D01*
X004088Y004738D01*
X004136Y004737D01*
X004184Y004732D01*
X004232Y004723D01*
X004278Y004711D01*
X004323Y004694D01*
X004367Y004674D01*
X004409Y004651D01*
X004449Y004624D01*
X004487Y004594D01*
X004522Y004561D01*
X004554Y004525D01*
X004584Y004487D01*
X004610Y004446D01*
X004632Y004403D01*
X004652Y004359D01*
X004667Y004314D01*
X004679Y004267D01*
X004687Y004219D01*
X004691Y004171D01*
X004691Y004123D01*
X004687Y004075D01*
X004679Y004027D01*
X004667Y003980D01*
X004652Y003935D01*
X004632Y003891D01*
X004610Y003848D01*
X004584Y003807D01*
X004554Y003769D01*
X004522Y003733D01*
X004487Y003700D01*
X004449Y003670D01*
X004409Y003643D01*
X004367Y003620D01*
X004323Y003600D01*
X004278Y003583D01*
X004232Y003571D01*
X004184Y003562D01*
X004136Y003557D01*
X004088Y003556D01*
X004040Y003559D01*
X003992Y003566D01*
X003945Y003577D01*
X003899Y003591D01*
X003854Y003609D01*
X003811Y003631D01*
X003770Y003656D01*
X003732Y003685D01*
X003695Y003717D01*
X003661Y003751D01*
X003631Y003788D01*
X003603Y003827D01*
X003578Y003869D01*
X003558Y003913D01*
X003540Y003958D01*
X003527Y004004D01*
X003517Y004051D01*
X003511Y004099D01*
X003509Y004147D01*
X000883Y011147D02*
X000885Y011176D01*
X000891Y011204D01*
X000900Y011232D01*
X000913Y011258D01*
X000930Y011281D01*
X000949Y011303D01*
X000971Y011322D01*
X000996Y011337D01*
X001022Y011350D01*
X001050Y011358D01*
X001078Y011363D01*
X001107Y011364D01*
X001136Y011361D01*
X001164Y011354D01*
X001191Y011344D01*
X001217Y011330D01*
X001240Y011313D01*
X001261Y011293D01*
X001279Y011270D01*
X001294Y011245D01*
X001305Y011218D01*
X001313Y011190D01*
X001317Y011161D01*
X001317Y011133D01*
X001313Y011104D01*
X001305Y011076D01*
X001294Y011049D01*
X001279Y011024D01*
X001261Y011001D01*
X001240Y010981D01*
X001217Y010964D01*
X001191Y010950D01*
X001164Y010940D01*
X001136Y010933D01*
X001107Y010930D01*
X001078Y010931D01*
X001050Y010936D01*
X001022Y010944D01*
X000996Y010957D01*
X000971Y010972D01*
X000949Y010991D01*
X000930Y011013D01*
X000913Y011036D01*
X000900Y011062D01*
X000891Y011090D01*
X000885Y011118D01*
X000883Y011147D01*
X009883Y001147D02*
X009885Y001176D01*
X009891Y001204D01*
X009900Y001232D01*
X009913Y001258D01*
X009930Y001281D01*
X009949Y001303D01*
X009971Y001322D01*
X009996Y001337D01*
X010022Y001350D01*
X010050Y001358D01*
X010078Y001363D01*
X010107Y001364D01*
X010136Y001361D01*
X010164Y001354D01*
X010191Y001344D01*
X010217Y001330D01*
X010240Y001313D01*
X010261Y001293D01*
X010279Y001270D01*
X010294Y001245D01*
X010305Y001218D01*
X010313Y001190D01*
X010317Y001161D01*
X010317Y001133D01*
X010313Y001104D01*
X010305Y001076D01*
X010294Y001049D01*
X010279Y001024D01*
X010261Y001001D01*
X010240Y000981D01*
X010217Y000964D01*
X010191Y000950D01*
X010164Y000940D01*
X010136Y000933D01*
X010107Y000930D01*
X010078Y000931D01*
X010050Y000936D01*
X010022Y000944D01*
X009996Y000957D01*
X009971Y000972D01*
X009949Y000991D01*
X009930Y001013D01*
X009913Y001036D01*
X009900Y001062D01*
X009891Y001090D01*
X009885Y001118D01*
X009883Y001147D01*
D11*
X009600Y009647D03*
X008850Y010147D03*
X009600Y010647D03*
D12*
X005419Y005466D03*
X005970Y004147D03*
X005419Y002828D03*
X002781Y002828D03*
X002230Y004147D03*
X002781Y005466D03*
D13*
X002600Y009147D03*
X003600Y009147D03*
X004600Y009147D03*
X005600Y009147D03*
D14*
X008600Y005147D03*
X008600Y004147D03*
X008600Y003147D03*
M02*
