G75*
G70*
%OFA0B0*%
%FSLAX24Y24*%
%IPPOS*%
%LPD*%
%AMOC8*
5,1,8,0,0,1.08239X$1,22.5*
%
%ADD10C,0.0060*%
%ADD11C,0.0039*%
%ADD12C,0.0080*%
%ADD13C,0.0100*%
%ADD14R,0.0157X0.0827*%
D10*
X008895Y002847D02*
X008897Y002888D01*
X008903Y002929D01*
X008913Y002969D01*
X008926Y003008D01*
X008943Y003045D01*
X008964Y003081D01*
X008988Y003115D01*
X009015Y003146D01*
X009044Y003174D01*
X009077Y003200D01*
X009111Y003222D01*
X009148Y003241D01*
X009186Y003256D01*
X009226Y003268D01*
X009266Y003276D01*
X009307Y003280D01*
X009349Y003280D01*
X009390Y003276D01*
X009430Y003268D01*
X009470Y003256D01*
X009508Y003241D01*
X009544Y003222D01*
X009579Y003200D01*
X009612Y003174D01*
X009641Y003146D01*
X009668Y003115D01*
X009692Y003081D01*
X009713Y003045D01*
X009730Y003008D01*
X009743Y002969D01*
X009753Y002929D01*
X009759Y002888D01*
X009761Y002847D01*
X009759Y002806D01*
X009753Y002765D01*
X009743Y002725D01*
X009730Y002686D01*
X009713Y002649D01*
X009692Y002613D01*
X009668Y002579D01*
X009641Y002548D01*
X009612Y002520D01*
X009579Y002494D01*
X009545Y002472D01*
X009508Y002453D01*
X009470Y002438D01*
X009430Y002426D01*
X009390Y002418D01*
X009349Y002414D01*
X009307Y002414D01*
X009266Y002418D01*
X009226Y002426D01*
X009186Y002438D01*
X009148Y002453D01*
X009112Y002472D01*
X009077Y002494D01*
X009044Y002520D01*
X009015Y002548D01*
X008988Y002579D01*
X008964Y002613D01*
X008943Y002649D01*
X008926Y002686D01*
X008913Y002725D01*
X008903Y002765D01*
X008897Y002806D01*
X008895Y002847D01*
X009700Y009101D02*
X009700Y009259D01*
X010250Y009322D02*
X010250Y010971D01*
X009700Y011034D02*
X009700Y011192D01*
X009700Y010259D02*
X009700Y010034D01*
X010250Y009321D02*
X010199Y009284D01*
X010146Y009249D01*
X010090Y009217D01*
X010033Y009189D01*
X009974Y009165D01*
X009914Y009144D01*
X009853Y009127D01*
X009791Y009113D01*
X009728Y009104D01*
X009665Y009098D01*
X009601Y009096D01*
X009537Y009098D01*
X009474Y009104D01*
X009411Y009113D01*
X009349Y009126D01*
X009288Y009144D01*
X009228Y009164D01*
X009169Y009189D01*
X009112Y009216D01*
X009056Y009248D01*
X009003Y009282D01*
X008952Y009320D01*
X008903Y009361D01*
X008857Y009405D01*
X008813Y009451D01*
X008772Y009500D01*
X008735Y009551D01*
X008700Y009605D01*
X008669Y009660D01*
X008641Y009717D01*
X008617Y009776D01*
X008597Y009836D01*
X008597Y010457D02*
X008617Y010517D01*
X008641Y010576D01*
X008669Y010633D01*
X008700Y010688D01*
X008735Y010742D01*
X008772Y010793D01*
X008813Y010842D01*
X008857Y010888D01*
X008903Y010932D01*
X008952Y010973D01*
X009003Y011011D01*
X009056Y011045D01*
X009112Y011077D01*
X009169Y011104D01*
X009228Y011129D01*
X009288Y011149D01*
X009349Y011167D01*
X009411Y011180D01*
X009474Y011189D01*
X009537Y011195D01*
X009601Y011197D01*
X009665Y011195D01*
X009728Y011189D01*
X009791Y011180D01*
X009853Y011166D01*
X009914Y011149D01*
X009974Y011128D01*
X010033Y011104D01*
X010090Y011076D01*
X010146Y011044D01*
X010199Y011009D01*
X010250Y010972D01*
D11*
X000793Y004147D02*
X000797Y004309D01*
X000809Y004471D01*
X000829Y004632D01*
X000857Y004792D01*
X000892Y004951D01*
X000935Y005107D01*
X000986Y005261D01*
X001045Y005413D01*
X001111Y005561D01*
X001183Y005706D01*
X001263Y005847D01*
X001350Y005984D01*
X001444Y006117D01*
X001544Y006245D01*
X001650Y006368D01*
X001762Y006485D01*
X001879Y006597D01*
X002002Y006703D01*
X002130Y006803D01*
X002263Y006897D01*
X002400Y006984D01*
X002541Y007064D01*
X002686Y007136D01*
X002834Y007202D01*
X002986Y007261D01*
X003140Y007312D01*
X003296Y007355D01*
X003455Y007390D01*
X003615Y007418D01*
X003776Y007438D01*
X003938Y007450D01*
X004100Y007454D01*
X004262Y007450D01*
X004424Y007438D01*
X004585Y007418D01*
X004745Y007390D01*
X004904Y007355D01*
X005060Y007312D01*
X005214Y007261D01*
X005366Y007202D01*
X005514Y007136D01*
X005659Y007064D01*
X005800Y006984D01*
X005937Y006897D01*
X006070Y006803D01*
X006198Y006703D01*
X006321Y006597D01*
X006438Y006485D01*
X006550Y006368D01*
X006656Y006245D01*
X006756Y006117D01*
X006850Y005984D01*
X006937Y005847D01*
X007017Y005706D01*
X007089Y005561D01*
X007155Y005413D01*
X007214Y005261D01*
X007265Y005107D01*
X007308Y004951D01*
X007343Y004792D01*
X007371Y004632D01*
X007391Y004471D01*
X007403Y004309D01*
X007407Y004147D01*
X007403Y003985D01*
X007391Y003823D01*
X007371Y003662D01*
X007343Y003502D01*
X007308Y003343D01*
X007265Y003187D01*
X007214Y003033D01*
X007155Y002881D01*
X007089Y002733D01*
X007017Y002588D01*
X006937Y002447D01*
X006850Y002310D01*
X006756Y002177D01*
X006656Y002049D01*
X006550Y001926D01*
X006438Y001809D01*
X006321Y001697D01*
X006198Y001591D01*
X006070Y001491D01*
X005937Y001397D01*
X005800Y001310D01*
X005659Y001230D01*
X005514Y001158D01*
X005366Y001092D01*
X005214Y001033D01*
X005060Y000982D01*
X004904Y000939D01*
X004745Y000904D01*
X004585Y000876D01*
X004424Y000856D01*
X004262Y000844D01*
X004100Y000840D01*
X003938Y000844D01*
X003776Y000856D01*
X003615Y000876D01*
X003455Y000904D01*
X003296Y000939D01*
X003140Y000982D01*
X002986Y001033D01*
X002834Y001092D01*
X002686Y001158D01*
X002541Y001230D01*
X002400Y001310D01*
X002263Y001397D01*
X002130Y001491D01*
X002002Y001591D01*
X001879Y001697D01*
X001762Y001809D01*
X001650Y001926D01*
X001544Y002049D01*
X001444Y002177D01*
X001350Y002310D01*
X001263Y002447D01*
X001183Y002588D01*
X001111Y002733D01*
X001045Y002881D01*
X000986Y003033D01*
X000935Y003187D01*
X000892Y003343D01*
X000857Y003502D01*
X000829Y003662D01*
X000809Y003823D01*
X000797Y003985D01*
X000793Y004147D01*
D12*
X002350Y008647D02*
X002850Y008647D01*
X003100Y008897D01*
X003350Y008647D01*
X003850Y008647D01*
X004100Y008897D01*
X004350Y008647D01*
X004850Y008647D01*
X005100Y008897D01*
X005350Y008647D01*
X005850Y008647D01*
X006100Y008897D01*
X006100Y009397D01*
X005850Y009647D01*
X005350Y009647D01*
X005100Y009397D01*
X004850Y009647D01*
X004350Y009647D01*
X004100Y009397D01*
X003850Y009647D01*
X003350Y009647D01*
X003100Y009397D01*
X002850Y009647D01*
X002350Y009647D01*
X002100Y009397D01*
X002100Y008897D01*
X002350Y008647D01*
D13*
X008108Y006036D02*
X008108Y005407D01*
X008206Y005407D01*
X008206Y002887D01*
X008108Y002887D01*
X008108Y002257D01*
X009899Y002257D01*
X009899Y006036D01*
X008108Y006036D01*
D14*
X009328Y002847D03*
M02*
